<svg width="60" height="60" viewBox="0 0 60 60" fill="none" xmlns="http://www.w3.org/2000/svg">
<path d="M27.2509 5.24911C15.7519 6.49912 6.49899 15.752 5.24899 27.002C3.99899 38.7501 10.7519 49.2481 21.0009 53.2521C21.748 53.5011 22.5 52.9981 22.5 52.0021V47.9981C22.5 47.9981 21.499 48.2521 20.249 48.2521C16.748 48.2521 15.249 45.2491 15 43.5011C14.7509 42.5001 14.248 41.7481 13.5009 41.0011C12.749 40.7521 12.5 40.752 12.5 40.4981C12.5 40.0001 13.2519 40.0001 13.5009 40.0001C15 40.0001 16.25 41.7481 16.748 42.5001C17.998 44.5021 19.5019 45.0001 20.249 45.0001C21.25 45.0001 22.0019 44.7511 22.5 44.5021C22.749 42.7491 23.5009 41.0011 25 40.0001C19.248 38.7501 15 35.4981 15 30.0001C15 27.2511 16.25 24.502 17.998 22.5001C17.749 22.002 17.5 20.752 17.5 18.9991C17.5 17.9981 17.5 16.7481 17.998 15.752C17.998 15.2491 18.5009 15.0001 18.75 15.0001H18.999C20.249 15.2491 22.749 16.0011 25 18.252C26.499 17.7491 28.2519 17.5001 30 17.5001C31.748 17.5001 33.5009 17.7491 35 18.252C37.2509 16.0011 40 15.2491 41.25 15.0001H41.499C42.0019 15.0001 42.2509 15.2491 42.5 15.752C42.5 16.7481 42.5 17.9981 42.5 18.9991C42.5 21.0011 42.2509 22.002 42.0019 22.5001C43.75 24.502 45 27.002 45 30.0001C45 35.4981 40.7519 38.7501 35 40.0001C36.499 41.2501 37.5 43.5011 37.5 45.752V52.2511C37.5 52.9981 38.2519 53.7501 39.248 53.5011C48.5009 49.7511 55 40.752 55 30.2491C55 15.2491 42.2509 3.50107 27.2509 5.24911Z" fill="#5D64D3"/>
</svg>
