<svg width="40" height="40" viewBox="0 0 40 40" fill="none" xmlns="http://www.w3.org/2000/svg">
<path d="M14.0007 0C6.28937 0 0 6.26141 0 13.9385C0 21.6155 6.28937 27.8769 14.0007 27.8769C17.493 27.8769 20.6885 26.578 23.1496 24.4545L24.0012 25.3023V27.8769L35.1736 38.9997C36.2752 40.0964 38.0722 40.0964 39.1738 38.9997C40.2754 37.9029 40.2754 36.114 39.1738 35.0173L28.0014 23.8945H25.4153L24.5637 23.0467C26.6966 20.5966 28.0014 17.4153 28.0014 13.9385C28.0014 6.26141 21.712 0 14.0007 0ZM14.0007 3.98241C19.5478 3.98241 24.0012 8.41596 24.0012 13.9385C24.0012 19.4609 19.5478 23.8945 14.0007 23.8945C8.45354 23.8945 4.0002 19.4609 4.0002 13.9385C4.0002 8.41596 8.45354 3.98241 14.0007 3.98241Z" fill="#5D64D3"/>
</svg>
