<svg width="621" height="483" viewBox="0 0 621 483" fill="none" xmlns="http://www.w3.org/2000/svg">
<path d="M27.6606 196.449C28.2544 235.721 41.9561 239.972 58.7824 235.876C78.0044 231.197 93.7813 216.531 101.557 197.127L106.92 183.744C110.485 174.848 110.605 164.798 107.253 155.807C103.902 146.815 97.3534 139.618 89.0485 135.799H89.0485C84.9363 133.908 80.5167 132.903 76.0421 132.842C71.5674 132.781 67.1253 133.664 62.9693 135.442C58.8134 137.219 55.0249 139.857 51.8204 143.203C48.6159 146.549 46.0579 150.539 44.2927 154.944C27.0365 162.206 23.6284 177.239 27.6606 196.449Z" fill="#2F2E41"/>
<path d="M135.856 117.407L141.02 108.045C141.651 106.902 142.031 105.62 142.134 104.297C142.236 102.974 142.058 101.643 141.611 100.404C141.165 99.1648 140.462 98.0504 139.557 97.1438C138.651 96.2373 137.565 95.5623 136.381 95.1695C135.131 94.7549 133.807 94.6663 132.519 94.911C131.23 95.1558 130.015 95.7269 128.975 96.5767C127.934 97.4264 127.099 98.5303 126.537 99.7963C125.976 101.062 125.705 102.454 125.747 103.855L126.05 113.918L101.78 185.173L115.015 188.133L135.856 117.407Z" fill="#9F616A"/>
<path d="M8.16797 293.062L1.81112 301.54C1.03486 302.575 0.48753 303.786 0.210196 305.08C-0.0671387 306.374 -0.0672795 307.719 0.209783 309.013C0.486845 310.308 1.03392 311.518 1.80996 312.553C2.586 313.589 3.57086 314.423 4.69065 314.992C5.87257 315.593 7.17149 315.883 8.47917 315.838C9.78685 315.792 11.0654 315.412 12.2083 314.73C13.3512 314.047 14.3253 313.082 15.0494 311.915C15.7735 310.748 16.2267 309.412 16.3712 308.019L17.4091 298.012L50.9084 231.188L38.2018 226.238L8.16797 293.062Z" fill="#9F616A"/>
<path d="M47.4429 363.597L48.3786 375.638L48.5981 378.447L110.814 372.037C112.959 371.778 115.016 370.981 116.819 369.71C118.622 368.439 120.119 366.73 121.19 364.722C122.26 362.715 122.873 360.465 122.979 358.156C123.085 355.847 122.681 353.543 121.8 351.433L101.735 305.288L94.804 289.349L64.7702 281.924C40.0038 302.231 62.2866 324.642 90.322 347.312C91.4194 348.203 92.5284 349.094 93.6488 349.985L47.4429 363.597Z" fill="#2F2E41"/>
<path d="M26.4788 405.292C27.2368 405.408 28.01 405.313 28.7242 405.017C29.4383 404.721 30.0695 404.233 30.5572 403.601L50.9084 377.21L49.7532 364.835L42.8141 360.375C42.2464 360.01 41.6115 359.782 40.9532 359.706C40.295 359.631 39.6294 359.71 39.0026 359.938C38.3757 360.166 37.8027 360.537 37.3234 361.026C36.844 361.515 36.4698 362.11 36.2268 362.77L22.9531 398.793C22.7052 399.466 22.6028 400.19 22.6535 400.911C22.7043 401.633 22.9069 402.332 23.2462 402.957C23.5855 403.583 24.0526 404.118 24.6124 404.522C25.1723 404.926 25.8104 405.189 26.4788 405.292Z" fill="#2F2E41"/>
<path opacity="0.2" d="M43.9775 361.122L45.1326 375.972L48.3786 375.638L107.349 369.562C109.493 369.303 111.551 368.506 113.353 367.235C115.156 365.964 116.654 364.255 117.724 362.247C118.794 360.24 119.408 357.99 119.514 355.681C119.62 353.372 119.216 351.068 118.334 348.958L101.735 309.149V305.288L94.804 289.349L64.7702 281.924C40.0038 302.231 62.2866 324.642 90.322 347.312L90.1834 347.51L43.9775 361.122Z" fill="black"/>
<path d="M20.703 400.342C21.4611 400.458 22.2343 400.363 22.9484 400.067C23.6626 399.771 24.2937 399.284 24.7814 398.651L45.1326 372.26L43.9775 359.885L37.0383 355.425C36.4707 355.06 35.8357 354.832 35.1775 354.756C34.5193 354.681 33.8537 354.76 33.2268 354.988C32.6 355.216 32.027 355.587 31.5476 356.076C31.0683 356.565 30.6941 357.16 30.451 357.82L17.1774 393.843C16.9295 394.516 16.827 395.24 16.8778 395.961C16.9286 396.683 17.1312 397.382 17.4705 398.007C17.8097 398.633 18.2768 399.168 18.8367 399.572C19.3966 399.976 20.0346 400.239 20.703 400.342Z" fill="#2F2E41"/>
<path d="M41.6672 358.648L42.8223 373.497L105.039 367.085C107.183 366.827 109.24 366.03 111.043 364.759C112.846 363.488 114.344 361.78 115.414 359.773C116.485 357.766 117.099 355.516 117.206 353.207C117.312 350.898 116.909 348.595 116.029 346.484L99.4246 306.674V284.399L58.9944 276.975C33.2535 298.079 58.3339 321.457 87.8731 345.035L41.6672 358.648Z" fill="#2F2E41"/>
<path d="M80.9422 184.164C90.5118 184.164 98.2694 175.854 98.2694 165.602C98.2694 155.351 90.5118 147.04 80.9422 147.04C71.3727 147.04 63.615 155.351 63.615 165.602C63.615 175.854 71.3727 184.164 80.9422 184.164Z" fill="#9F616A"/>
<path d="M57.8393 196.539L82.0974 213.863L102.89 208.914L91.3385 196.539V177.977L72.8562 176.739C72.4681 184.152 68.5033 190.935 57.8393 196.539Z" fill="#9F616A"/>
<path d="M54.3738 283.162L99.4246 289.349L109.821 237.375C114.651 223.579 111.88 211.39 102.938 200.506C102.596 198.674 101.685 197.021 100.353 195.815C99.0214 194.609 97.3478 193.921 95.6048 193.865L91.3385 194.064C91.8211 210.476 80.5338 206.523 63.615 192.826L61.5721 193.483C58.9311 194.332 56.6637 196.171 55.1847 198.664C53.7058 201.157 53.1143 204.137 53.5183 207.059L55.3812 220.529C56.1711 225.869 57.3982 231.125 59.0483 236.235C63.6671 251.023 62.0165 266.678 54.3738 283.162Z" fill="#5D64D3"/>
<path d="M33.5811 227.476L54.3738 234.9L63.615 199.014L60.4843 197.489C57.8886 196.225 54.9414 196.067 52.2405 197.045C49.5397 198.024 47.2876 200.067 45.9412 202.759L33.5811 227.476Z" fill="#5D64D3"/>
<path d="M94.804 194.064L106.356 207.676L120.217 184.164L102.89 174.264L94.804 194.064Z" fill="#5D64D3"/>
<path d="M60.7271 160.033C71.6155 164.432 83.2357 163.976 95.3816 160.033V145.184H60.7271V160.033Z" fill="#2F2E41"/>
<path d="M601.135 414.942L589.19 420.274L509.553 304.036L451.816 422.407L436.885 419.208L480.685 256.048H531.453L601.135 414.942Z" fill="#2F2E41"/>
<path d="M617.161 442.058C616.499 442.252 615.808 442.303 615.127 442.209C614.446 442.115 613.789 441.878 613.195 441.511L588.002 425.972C587.322 425.553 586.742 424.972 586.305 424.273C585.868 423.575 585.588 422.778 585.485 421.945C585.382 421.111 585.46 420.264 585.712 419.468C585.964 418.672 586.383 417.948 586.938 417.354L589.19 414.942L601.135 413.876L619.397 432.656C620.061 433.339 620.544 434.199 620.797 435.147C621.05 436.095 621.063 437.099 620.836 438.055C620.609 439.01 620.149 439.885 619.503 440.588C618.858 441.291 618.05 441.799 617.161 442.058Z" fill="#2F2E41"/>
<path d="M421.854 446.324C422.516 446.517 423.207 446.569 423.888 446.475C424.569 446.381 425.226 446.144 425.82 445.777L451.013 430.238C451.693 429.819 452.274 429.237 452.71 428.539C453.147 427.84 453.427 427.044 453.53 426.21C453.633 425.377 453.555 424.53 453.303 423.734C453.051 422.938 452.632 422.214 452.077 421.62L449.825 419.208L437.88 418.142L419.619 436.922C418.954 437.605 418.471 438.464 418.218 439.413C417.965 440.361 417.952 441.365 418.179 442.32C418.406 443.276 418.866 444.15 419.512 444.854C420.157 445.557 420.965 446.064 421.854 446.324Z" fill="#2F2E41"/>
<path d="M446.839 86.4903L441.862 89.6895L431.547 71.7339C430.914 70.6312 430.537 69.3814 430.449 68.09C430.361 66.7986 430.564 65.5034 431.041 64.3137C431.518 63.124 432.256 62.0747 433.191 61.2542C434.126 60.4338 435.231 59.8662 436.414 59.5995C437.466 59.3623 438.553 59.3688 439.602 59.6184C440.651 59.8681 441.638 60.3552 442.497 61.0471C443.356 61.7389 444.067 62.6196 444.582 63.6299C445.098 64.6403 445.405 65.757 445.485 66.9051L446.839 86.4903Z" fill="#FFB9B9"/>
<path d="M584.717 226.283L586.782 220.472L605.252 227.75C606.386 228.197 607.404 228.93 608.219 229.887C609.033 230.843 609.621 231.996 609.933 233.247C610.245 234.498 610.271 235.811 610.009 237.075C609.748 238.339 609.207 239.518 608.431 240.511C607.742 241.394 606.884 242.109 605.915 242.608C604.947 243.106 603.89 243.377 602.815 243.403C601.741 243.428 600.674 243.207 599.686 242.754C598.697 242.301 597.811 241.628 597.086 240.778L584.717 226.283Z" fill="#FFB9B9"/>
<path d="M506.567 150.474C514.813 150.474 521.499 143.313 521.499 134.478C521.499 125.644 514.813 118.482 506.567 118.482C498.32 118.482 491.635 125.644 491.635 134.478C491.635 143.313 498.32 150.474 506.567 150.474Z" fill="#FFB9B9"/>
<path d="M519.508 168.603H498.603V144.076L516.521 141.943L519.508 168.603Z" fill="#FFB9B9"/>
<path d="M534.439 262.447H477.698C479.699 228.531 481.283 195.756 477.698 177.135L480.998 160.169C481.455 157.819 482.721 155.738 484.544 154.342C486.368 152.946 488.615 152.336 490.839 152.634L498.603 153.674C503.86 163.576 510.215 163.48 517.517 154.74H526.868C528.115 154.74 529.349 155.007 530.498 155.524C531.648 156.041 532.689 156.799 533.562 157.752C534.435 158.706 535.122 159.837 535.581 161.078C536.041 162.319 536.266 163.647 536.241 164.982C538.677 176.931 539.487 189.195 538.647 201.392L534.439 262.447Z" fill="#3F3D56"/>
<path d="M438.875 86.49L446.839 82.2247L489.644 157.939L477.698 177.134L438.875 86.49Z" fill="#3F3D56"/>
<path d="M584.83 229.317L591.635 223.167L555.473 168.882C551.935 163.572 547.057 159.451 541.412 157.002C535.767 154.554 529.587 153.879 523.597 155.057L522.456 155.282L536.13 180.917L554.14 195.524L584.83 229.317Z" fill="#3F3D56"/>
<path d="M523.835 125.036C523.835 125.036 526.625 118.46 519.371 115.471C519.371 115.471 513.233 104.71 500.956 111.884C500.956 111.884 492.585 115.471 492.585 125.036C492.585 134.601 489.795 136.394 489.795 136.394C489.795 136.394 493.95 131.828 495.066 128.241C496.182 124.654 504.862 123.84 508.21 127.427C511.558 131.014 519.929 130.416 519.929 130.416L519.371 143.568C519.371 143.568 522.161 135.796 523.277 135.796C524.393 135.796 525.509 125.036 523.835 125.036Z" fill="#2F2E41"/>
<path d="M522.457 483C572.916 483 613.821 480.718 613.821 477.902C613.821 475.087 572.916 472.805 522.457 472.805C471.997 472.805 431.092 475.087 431.092 477.902C431.092 480.718 471.997 483 522.457 483Z" fill="#E6E6E6"/>
<path d="M66.2857 480.597C92.957 480.597 114.578 479.39 114.578 477.902C114.578 476.414 92.957 475.208 66.2857 475.208C39.6143 475.208 17.9929 476.414 17.9929 477.902C17.9929 479.39 39.6143 480.597 66.2857 480.597Z" fill="#E6E6E6"/>
<path d="M435.258 107.688L141.671 135.876C140.23 136.012 138.796 135.531 137.686 134.537C136.575 133.543 135.878 132.118 135.747 130.574L129.22 52.5573C129.093 51.0131 129.542 49.4776 130.47 48.2879C131.398 47.0982 132.729 46.3513 134.17 46.2111L427.756 18.0236C429.198 17.8871 430.631 18.3686 431.742 19.3626C432.852 20.3566 433.549 21.7819 433.68 23.3259L440.207 101.342C440.335 102.886 439.885 104.422 438.957 105.612C438.03 106.801 436.699 107.548 435.258 107.688Z" fill="#5D64D3"/>
<path d="M175.978 111.949C188.64 111.949 198.904 100.953 198.904 87.3892C198.904 73.8252 188.64 62.8293 175.978 62.8293C163.316 62.8293 153.052 73.8252 153.052 87.3892C153.052 100.953 163.316 111.949 175.978 111.949Z" fill="white"/>
<path d="M227.35 66.0182C226.342 66.117 225.412 66.6402 224.764 67.4729C224.116 68.3057 223.803 69.3799 223.893 70.4598C223.983 71.5398 224.47 72.5372 225.246 73.2332C226.022 73.9291 227.024 74.2668 228.033 74.1721L407.446 56.9464C407.947 56.8992 408.433 56.7467 408.878 56.4978C409.324 56.2488 409.719 55.9083 410.041 55.4957C410.363 55.083 410.607 54.6064 410.757 54.0929C410.907 53.5795 410.961 53.0394 410.916 52.5036C410.871 51.9677 410.728 51.4465 410.495 50.9699C410.262 50.4933 409.944 50.0705 409.558 49.7258C409.173 49.3812 408.727 49.1213 408.248 48.9612C407.768 48.801 407.264 48.7437 406.764 48.7925L227.35 66.0182Z" fill="white"/>
<path d="M229.397 90.4798C228.896 90.5268 228.409 90.6791 227.964 90.9279C227.519 91.1768 227.123 91.5173 226.801 91.93C226.478 92.3426 226.235 92.8194 226.085 93.333C225.934 93.8465 225.88 94.3868 225.925 94.9229C225.97 95.4589 226.113 95.9802 226.346 96.457C226.579 96.9337 226.898 97.3566 227.284 97.7012C227.669 98.0459 228.115 98.3057 228.595 98.4657C229.074 98.6257 229.579 98.6828 230.079 98.6337L409.493 81.4081C409.993 81.3608 410.48 81.2084 410.925 80.9594C411.37 80.7105 411.765 80.37 412.088 79.9573C412.41 79.5447 412.653 79.068 412.803 78.5546C412.953 78.0412 413.008 77.5011 412.963 76.9652C412.918 76.4293 412.775 75.9082 412.542 75.4316C412.309 74.9549 411.99 74.5322 411.605 74.1875C411.219 73.8428 410.774 73.583 410.294 73.4228C409.815 73.2627 409.311 73.2054 408.81 73.2542L229.397 90.4798Z" fill="white"/>
<rect x="131.139" y="1.5" width="305.558" height="322" rx="18.5" fill="#E8EBFF" stroke="#5D64D3" stroke-width="3"/>
</svg>
